<svg xmlns="http://www.w3.org/2000/svg" xmlns:xlink="http://www.w3.org/1999/xlink" width="256" zoomAndPan="magnify" viewBox="0 0 192 191.999996" height="256" preserveAspectRatio="xMidYMid meet" version="1.0"><defs><clipPath id="c3abbcf09f"><path d="M 0 113 L 192 113 L 192 183.175781 L 0 183.175781 Z M 0 113 " clip-rule="nonzero"/></clipPath></defs><g clip-path="url(#c3abbcf09f)"><path fill="#000000" d="M 0.207031 122.214844 C 0.207031 118.070312 3.46875 114.804688 7.613281 114.804688 L 30.949219 114.804688 C 39.507812 114.804688 46.144531 117.222656 50.558594 121.636719 C 54.320312 125.398438 56.316406 130.65625 56.316406 137.027344 L 56.316406 137.21875 C 56.316406 147.773438 51.019531 154.335938 42.882812 157.675781 L 53.167969 170.148438 C 54.628906 171.988281 55.585938 173.523438 55.585938 175.828125 C 55.585938 179.972656 52.132812 182.660156 48.5625 182.660156 C 45.1875 182.660156 43 181.007812 41.273438 178.820312 L 26.878906 160.554688 L 14.984375 160.554688 L 14.984375 175.253906 C 14.984375 179.398438 11.722656 182.660156 7.574219 182.660156 C 3.429688 182.660156 0.167969 179.398438 0.167969 175.253906 L 0.167969 122.214844 Z M 29.988281 147.464844 C 37.203125 147.464844 41.3125 143.628906 41.3125 137.949219 L 41.3125 137.796875 C 41.3125 131.460938 36.898438 128.199219 29.683594 128.199219 L 14.984375 128.199219 L 14.984375 147.503906 L 29.988281 147.503906 Z M 69.632812 174.675781 L 69.632812 122.214844 C 69.632812 118.070312 72.894531 114.804688 77.042969 114.804688 L 114.304688 114.804688 C 117.953125 114.804688 120.945312 117.800781 120.945312 121.445312 C 120.945312 125.089844 117.953125 127.96875 114.304688 127.96875 L 84.332031 127.96875 L 84.332031 141.632812 L 109.96875 141.632812 C 113.617188 141.632812 116.609375 144.625 116.609375 148.273438 C 116.609375 151.917969 113.617188 154.796875 109.96875 154.796875 L 84.332031 154.796875 L 84.332031 168.917969 L 114.804688 168.917969 C 118.453125 168.917969 121.445312 171.914062 121.445312 175.558594 C 121.445312 179.207031 118.453125 182.082031 114.804688 182.082031 L 77.042969 182.082031 C 72.933594 182.046875 69.632812 178.78125 69.632812 174.675781 Z M 131.039062 148.617188 L 131.039062 148.425781 C 131.039062 129.3125 145.429688 113.65625 166.117188 113.65625 C 176.210938 113.65625 183.042969 116.339844 188.605469 120.488281 C 190.140625 121.636719 191.484375 123.75 191.484375 126.359375 C 191.484375 130.386719 188.222656 133.574219 184.195312 133.574219 C 182.160156 133.574219 180.816406 132.804688 179.78125 132.113281 C 175.636719 129.042969 171.335938 127.316406 166.039062 127.316406 C 154.71875 127.316406 146.542969 136.71875 146.542969 148.273438 L 146.542969 148.464844 C 146.542969 159.976562 154.527344 169.609375 166.039062 169.609375 C 172.296875 169.609375 176.402344 167.691406 180.625 164.316406 C 181.777344 163.355469 183.3125 162.664062 185.039062 162.664062 C 188.800781 162.664062 191.945312 165.734375 191.945312 169.496094 C 191.945312 171.796875 190.792969 173.640625 189.453125 174.792969 C 183.386719 180.089844 176.289062 183.234375 165.542969 183.234375 C 145.738281 183.234375 131.039062 167.960938 131.039062 148.617188 Z M 131.039062 148.617188 " fill-opacity="1" fill-rule="nonzero"/></g><path fill="#0cc0df" d="M 191.945312 13.410156 L 191.945312 83.183594 C 191.945312 90.398438 183.808594 94.65625 177.859375 90.511719 L 150.113281 71.207031 C 146.046875 68.367188 143.589844 63.6875 143.589844 58.734375 L 143.589844 37.320312 C 143.589844 32.253906 146.082031 27.535156 150.304688 24.695312 L 177.976562 5.964844 C 183.925781 1.972656 191.945312 6.234375 191.945312 13.410156 Z M 135.835938 17.480469 L 135.835938 79.152344 C 135.835938 90.359375 126.78125 99.417969 115.574219 99.417969 L 20.316406 99.417969 C 9.109375 99.417969 0.0546875 90.320312 0.0546875 79.152344 L 0.0546875 17.480469 C 0.0546875 6.273438 9.109375 -2.824219 20.316406 -2.824219 L 115.574219 -2.824219 C 126.742188 -2.824219 135.835938 6.273438 135.835938 17.480469 Z M 42.847656 20.203125 C 42.847656 16.828125 40.121094 14.101562 36.742188 14.101562 L 28.148438 14.101562 C 24.769531 14.101562 22.042969 16.828125 22.042969 20.203125 C 22.042969 23.582031 24.769531 26.304688 28.148438 26.304688 L 36.742188 26.304688 C 40.121094 26.34375 42.847656 23.621094 42.847656 20.203125 Z M 67.945312 20.203125 C 67.945312 16.828125 65.21875 14.101562 61.84375 14.101562 L 53.246094 14.101562 C 49.867188 14.101562 47.144531 16.828125 47.144531 20.203125 C 47.144531 23.582031 49.867188 26.304688 53.246094 26.304688 L 61.84375 26.304688 C 65.183594 26.34375 67.945312 23.621094 67.945312 20.203125 Z M 67.945312 20.203125 " fill-opacity="1" fill-rule="nonzero"/></svg>