<svg xmlns="http://www.w3.org/2000/svg" xmlns:xlink="http://www.w3.org/1999/xlink" width="256" zoomAndPan="magnify" viewBox="0 0 192 191.999996" height="256" preserveAspectRatio="xMidYMid meet" version="1.0"><defs><clipPath id="5ac424b554"><path d="M 3.449219 3.449219 L 188.699219 3.449219 L 188.699219 188.699219 L 3.449219 188.699219 Z M 3.449219 3.449219 " clip-rule="nonzero"/></clipPath></defs><path fill="#dff8fc" d="M 183.25 96.074219 C 183.25 97.5 183.214844 98.925781 183.144531 100.351562 C 183.074219 101.777344 182.96875 103.199219 182.832031 104.617188 C 182.691406 106.039062 182.515625 107.453125 182.308594 108.863281 C 182.097656 110.277344 181.851562 111.683594 181.574219 113.082031 C 181.296875 114.480469 180.984375 115.871094 180.636719 117.257812 C 180.289062 118.640625 179.910156 120.015625 179.496094 121.378906 C 179.082031 122.746094 178.636719 124.097656 178.152344 125.441406 C 177.671875 126.785156 177.160156 128.117188 176.613281 129.433594 C 176.066406 130.753906 175.492188 132.058594 174.878906 133.347656 C 174.269531 134.636719 173.628906 135.910156 172.957031 137.167969 C 172.285156 138.425781 171.582031 139.667969 170.847656 140.890625 C 170.113281 142.113281 169.351562 143.320312 168.558594 144.507812 C 167.765625 145.691406 166.945312 146.859375 166.09375 148.003906 C 165.246094 149.152344 164.367188 150.273438 163.460938 151.378906 C 162.558594 152.480469 161.625 153.5625 160.667969 154.617188 C 159.710938 155.675781 158.726562 156.707031 157.71875 157.714844 C 156.707031 158.726562 155.675781 159.710938 154.617188 160.667969 C 153.5625 161.625 152.480469 162.558594 151.378906 163.460938 C 150.273438 164.367188 149.152344 165.246094 148.003906 166.09375 C 146.859375 166.945312 145.691406 167.765625 144.507812 168.558594 C 143.320312 169.351562 142.113281 170.113281 140.890625 170.847656 C 139.667969 171.582031 138.425781 172.285156 137.167969 172.957031 C 135.910156 173.628906 134.636719 174.269531 133.347656 174.878906 C 132.058594 175.492188 130.753906 176.066406 129.433594 176.613281 C 128.117188 177.160156 126.785156 177.671875 125.441406 178.152344 C 124.097656 178.636719 122.746094 179.082031 121.378906 179.496094 C 120.015625 179.910156 118.640625 180.289062 117.257812 180.636719 C 115.871094 180.984375 114.480469 181.296875 113.082031 181.574219 C 111.683594 181.851562 110.277344 182.097656 108.863281 182.308594 C 107.453125 182.515625 106.039062 182.691406 104.617188 182.832031 C 103.199219 182.96875 101.777344 183.074219 100.351562 183.144531 C 98.925781 183.214844 97.5 183.25 96.074219 183.25 C 94.648438 183.25 93.222656 183.214844 91.796875 183.144531 C 90.371094 183.074219 88.949219 182.96875 87.527344 182.832031 C 86.109375 182.691406 84.695312 182.515625 83.28125 182.304688 C 81.871094 182.097656 80.464844 181.851562 79.066406 181.574219 C 77.667969 181.296875 76.277344 180.984375 74.890625 180.636719 C 73.507812 180.289062 72.132812 179.910156 70.769531 179.496094 C 69.402344 179.082031 68.046875 178.636719 66.703125 178.152344 C 65.363281 177.671875 64.03125 177.160156 62.710938 176.613281 C 61.394531 176.066406 60.089844 175.492188 58.800781 174.878906 C 57.511719 174.269531 56.238281 173.628906 54.980469 172.957031 C 53.722656 172.285156 52.480469 171.582031 51.257812 170.847656 C 50.03125 170.113281 48.828125 169.351562 47.640625 168.558594 C 46.453125 167.765625 45.289062 166.945312 44.144531 166.09375 C 42.996094 165.246094 41.871094 164.367188 40.769531 163.460938 C 39.667969 162.558594 38.585938 161.625 37.53125 160.667969 C 36.472656 159.710938 35.441406 158.726562 34.429688 157.714844 C 33.421875 156.707031 32.4375 155.675781 31.480469 154.617188 C 30.523438 153.5625 29.589844 152.480469 28.683594 151.378906 C 27.78125 150.273438 26.902344 149.152344 26.054688 148.003906 C 25.203125 146.859375 24.382812 145.691406 23.589844 144.507812 C 22.796875 143.320312 22.035156 142.113281 21.300781 140.890625 C 20.566406 139.667969 19.863281 138.425781 19.191406 137.167969 C 18.519531 135.910156 17.878906 134.636719 17.265625 133.347656 C 16.65625 132.058594 16.078125 130.753906 15.53125 129.433594 C 14.988281 128.117188 14.472656 126.785156 13.992188 125.441406 C 13.511719 124.097656 13.066406 122.746094 12.652344 121.378906 C 12.238281 120.015625 11.855469 118.640625 11.511719 117.257812 C 11.164062 115.871094 10.851562 114.480469 10.574219 113.082031 C 10.292969 111.683594 10.050781 110.277344 9.839844 108.863281 C 9.632812 107.453125 9.457031 106.039062 9.316406 104.617188 C 9.175781 103.199219 9.074219 101.777344 9.003906 100.351562 C 8.933594 98.925781 8.898438 97.5 8.898438 96.074219 C 8.898438 94.648438 8.933594 93.222656 9.003906 91.796875 C 9.074219 90.371094 9.175781 88.949219 9.316406 87.527344 C 9.457031 86.109375 9.632812 84.695312 9.839844 83.28125 C 10.050781 81.871094 10.292969 80.464844 10.574219 79.066406 C 10.851562 77.667969 11.164062 76.277344 11.511719 74.890625 C 11.855469 73.507812 12.238281 72.132812 12.652344 70.769531 C 13.066406 69.402344 13.511719 68.046875 13.992188 66.703125 C 14.472656 65.363281 14.988281 64.03125 15.53125 62.710938 C 16.078125 61.394531 16.65625 60.089844 17.265625 58.800781 C 17.878906 57.511719 18.519531 56.238281 19.191406 54.980469 C 19.863281 53.722656 20.566406 52.480469 21.300781 51.257812 C 22.035156 50.03125 22.796875 48.828125 23.589844 47.640625 C 24.382812 46.453125 25.203125 45.289062 26.054688 44.144531 C 26.902344 42.996094 27.78125 41.871094 28.683594 40.769531 C 29.589844 39.667969 30.523438 38.585938 31.480469 37.53125 C 32.4375 36.472656 33.421875 35.441406 34.429688 34.429688 C 35.441406 33.421875 36.472656 32.4375 37.53125 31.480469 C 38.585938 30.523438 39.667969 29.589844 40.769531 28.683594 C 41.871094 27.78125 42.996094 26.902344 44.144531 26.054688 C 45.289062 25.203125 46.453125 24.382812 47.640625 23.589844 C 48.828125 22.796875 50.03125 22.035156 51.257812 21.300781 C 52.480469 20.566406 53.722656 19.863281 54.980469 19.191406 C 56.238281 18.519531 57.511719 17.878906 58.800781 17.265625 C 60.089844 16.65625 61.394531 16.078125 62.710938 15.53125 C 64.03125 14.988281 65.363281 14.472656 66.703125 13.992188 C 68.046875 13.511719 69.402344 13.066406 70.769531 12.652344 C 72.132812 12.238281 73.507812 11.855469 74.890625 11.511719 C 76.277344 11.164062 77.667969 10.851562 79.066406 10.574219 C 80.464844 10.292969 81.871094 10.050781 83.28125 9.839844 C 84.695312 9.632812 86.109375 9.457031 87.527344 9.316406 C 88.949219 9.175781 90.371094 9.074219 91.796875 9.003906 C 93.222656 8.933594 94.648438 8.898438 96.074219 8.898438 C 97.5 8.898438 98.925781 8.933594 100.351562 9.003906 C 101.777344 9.074219 103.199219 9.175781 104.617188 9.316406 C 106.039062 9.457031 107.453125 9.632812 108.863281 9.839844 C 110.277344 10.050781 111.683594 10.292969 113.082031 10.574219 C 114.480469 10.851562 115.871094 11.164062 117.257812 11.511719 C 118.640625 11.855469 120.015625 12.238281 121.378906 12.652344 C 122.746094 13.066406 124.097656 13.511719 125.441406 13.992188 C 126.785156 14.472656 128.117188 14.988281 129.433594 15.53125 C 130.753906 16.078125 132.058594 16.65625 133.347656 17.265625 C 134.636719 17.878906 135.910156 18.519531 137.167969 19.191406 C 138.425781 19.863281 139.667969 20.566406 140.890625 21.300781 C 142.113281 22.035156 143.320312 22.796875 144.507812 23.589844 C 145.691406 24.382812 146.859375 25.203125 148.003906 26.054688 C 149.152344 26.902344 150.273438 27.78125 151.378906 28.683594 C 152.480469 29.589844 153.5625 30.523438 154.617188 31.480469 C 155.675781 32.4375 156.707031 33.421875 157.71875 34.429688 C 158.726562 35.441406 159.710938 36.472656 160.667969 37.53125 C 161.625 38.585938 162.558594 39.667969 163.460938 40.769531 C 164.367188 41.871094 165.246094 42.996094 166.09375 44.144531 C 166.945312 45.289062 167.765625 46.453125 168.558594 47.640625 C 169.351562 48.828125 170.113281 50.03125 170.847656 51.257812 C 171.582031 52.480469 172.285156 53.722656 172.957031 54.980469 C 173.628906 56.238281 174.269531 57.511719 174.878906 58.800781 C 175.492188 60.089844 176.066406 61.394531 176.613281 62.710938 C 177.160156 64.03125 177.671875 65.363281 178.152344 66.703125 C 178.636719 68.046875 179.082031 69.402344 179.496094 70.769531 C 179.910156 72.132812 180.289062 73.507812 180.636719 74.890625 C 180.984375 76.277344 181.296875 77.667969 181.574219 79.066406 C 181.851562 80.464844 182.097656 81.871094 182.308594 83.28125 C 182.515625 84.695312 182.691406 86.109375 182.832031 87.527344 C 182.96875 88.949219 183.074219 90.371094 183.144531 91.796875 C 183.214844 93.222656 183.25 94.648438 183.25 96.074219 Z M 183.25 96.074219 " fill-opacity="1" fill-rule="nonzero"/><path fill="#0e5384" d="M 142.683594 119.347656 C 146.476562 123.136719 146.476562 129.292969 142.683594 133.085938 L 135.359375 140.410156 C 129.390625 146.378906 120.664062 148.738281 112.425781 146.5 C 79.925781 137.636719 54.511719 112.230469 45.648438 79.722656 C 43.414062 71.539062 45.738281 62.785156 51.738281 56.785156 L 59.058594 49.464844 C 62.855469 45.671875 69.007812 45.671875 72.800781 49.464844 L 81.207031 57.867188 C 84.480469 61.140625 84.988281 66.273438 82.417969 70.128906 L 74.890625 81.417969 C 82.542969 96.71875 95 109.390625 110.730469 117.257812 L 122.019531 109.726562 C 125.875 107.160156 131.007812 107.667969 134.277344 110.941406 Z M 142.683594 119.347656 " fill-opacity="1" fill-rule="nonzero"/><path fill="#000000" d="M 138.132812 107.089844 C 133.039062 101.996094 124.992188 101.199219 119 105.195312 L 110.402344 110.925781 C 98.195312 104.15625 87.988281 93.949219 81.222656 81.746094 L 86.953125 73.148438 C 90.949219 67.15625 90.152344 59.109375 85.058594 54.015625 L 76.652344 45.609375 C 70.726562 39.683594 61.136719 39.683594 55.207031 45.609375 L 47.886719 52.933594 C 40.523438 60.296875 37.652344 71.109375 40.390625 81.152344 C 49.769531 115.542969 76.65625 142.390625 110.992188 151.753906 C 121.09375 154.507812 131.894531 151.582031 139.214844 144.261719 L 146.535156 136.9375 C 152.460938 131.011719 152.460938 121.417969 146.535156 115.492188 Z M 138.832031 129.234375 L 131.507812 136.554688 C 126.90625 141.160156 120.144531 142.957031 113.863281 141.242188 C 83.351562 132.921875 59.226562 108.796875 50.90625 78.285156 C 49.191406 72.003906 50.988281 65.242188 55.589844 60.640625 L 62.914062 53.316406 C 64.582031 51.648438 67.28125 51.648438 68.949219 53.316406 L 77.351562 61.71875 C 78.785156 63.152344 79.011719 65.417969 77.886719 67.105469 L 70.359375 78.394531 C 69.273438 80.023438 69.144531 82.105469 70.019531 83.855469 C 78.246094 100.308594 91.835938 113.902344 108.292969 122.128906 C 110.039062 123.003906 112.125 122.875 113.75 121.789062 L 125.042969 114.261719 C 126.730469 113.136719 128.992188 113.359375 130.425781 114.792969 L 138.832031 123.199219 C 140.5 124.867188 140.5 127.566406 138.832031 129.234375 Z M 138.832031 129.234375 " fill-opacity="1" fill-rule="nonzero"/><g clip-path="url(#5ac424b554)"><path fill="#000000" d="M 96.074219 3.449219 C 44.875 3.449219 3.449219 44.882812 3.449219 96.074219 C 3.449219 147.273438 44.882812 188.699219 96.074219 188.699219 C 147.273438 188.699219 188.699219 147.265625 188.699219 96.074219 C 188.699219 44.875 147.265625 3.449219 96.074219 3.449219 Z M 96.074219 177.800781 C 51.007812 177.800781 14.347656 141.136719 14.347656 96.074219 C 14.347656 51.007812 51.007812 14.347656 96.074219 14.347656 C 141.136719 14.347656 177.800781 51.007812 177.800781 96.074219 C 177.800781 141.136719 141.136719 177.800781 96.074219 177.800781 Z M 96.074219 177.800781 " fill-opacity="1" fill-rule="nonzero"/></g></svg>