<svg xmlns="http://www.w3.org/2000/svg" xmlns:xlink="http://www.w3.org/1999/xlink" width="256" zoomAndPan="magnify" viewBox="0 0 192 191.999996" height="256" preserveAspectRatio="xMidYMid meet" version="1.0"><defs><clipPath id="8c06bc80de"><path d="M 3 6 L 191 6 L 191 186.726562 L 3 186.726562 Z M 3 6 " clip-rule="nonzero"/></clipPath></defs><g clip-path="url(#8c06bc80de)"><path fill="#000000" d="M 180.859375 100.125 L 173.191406 100.125 L 173.191406 178.757812 C 173.160156 179.289062 173.074219 179.808594 172.9375 180.324219 C 172.804688 180.835938 172.621094 181.332031 172.390625 181.8125 C 172.15625 182.289062 171.878906 182.742188 171.5625 183.164062 C 171.242188 183.589844 170.882812 183.976562 170.484375 184.332031 C 170.089844 184.683594 169.664062 184.996094 169.207031 185.265625 C 168.75 185.539062 168.269531 185.761719 167.769531 185.9375 C 167.269531 186.117188 166.753906 186.242188 166.230469 186.320312 C 165.703125 186.394531 165.175781 186.417969 164.644531 186.394531 L 119.335938 186.394531 L 119.335938 132.777344 C 119.335938 132.410156 119.300781 132.046875 119.230469 131.683594 C 119.15625 131.324219 119.050781 130.972656 118.910156 130.632812 C 118.769531 130.292969 118.597656 129.972656 118.394531 129.664062 C 118.1875 129.359375 117.957031 129.078125 117.695312 128.816406 C 117.4375 128.554688 117.152344 128.324219 116.847656 128.121094 C 116.542969 127.914062 116.21875 127.742188 115.878906 127.601562 C 115.539062 127.460938 115.191406 127.355469 114.828125 127.28125 C 114.46875 127.210938 114.105469 127.175781 113.738281 127.175781 L 80.863281 127.175781 C 80.496094 127.175781 80.132812 127.210938 79.773438 127.28125 C 79.410156 127.355469 79.0625 127.460938 78.722656 127.601562 C 78.382812 127.742188 78.058594 127.914062 77.753906 128.117188 C 77.445312 128.324219 77.164062 128.554688 76.902344 128.816406 C 76.644531 129.074219 76.410156 129.359375 76.207031 129.664062 C 76.003906 129.96875 75.832031 130.292969 75.691406 130.632812 C 75.550781 130.972656 75.445312 131.324219 75.371094 131.683594 C 75.300781 132.042969 75.265625 132.410156 75.265625 132.777344 L 75.265625 186.390625 L 29.953125 186.390625 C 29.425781 186.417969 28.898438 186.394531 28.375 186.320312 C 27.851562 186.242188 27.339844 186.117188 26.839844 185.941406 C 26.339844 185.765625 25.859375 185.542969 25.40625 185.277344 C 24.949219 185.007812 24.523438 184.695312 24.128906 184.34375 C 23.734375 183.988281 23.378906 183.601562 23.058594 183.179688 C 22.738281 182.757812 22.464844 182.304688 22.234375 181.828125 C 22.003906 181.351562 21.820312 180.859375 21.6875 180.347656 C 21.554688 179.832031 21.472656 179.3125 21.441406 178.785156 L 21.441406 100.125 L 13.738281 100.125 C 5.199219 100.125 0.574219 92.085938 6.167969 86.929688 L 90.464844 9.007812 C 90.992188 8.5625 91.554688 8.164062 92.152344 7.820312 C 92.75 7.472656 93.375 7.179688 94.023438 6.941406 C 94.671875 6.707031 95.335938 6.527344 96.019531 6.40625 C 96.699219 6.289062 97.382812 6.226562 98.074219 6.230469 C 98.765625 6.230469 99.453125 6.292969 100.132812 6.414062 C 100.8125 6.539062 101.476562 6.71875 102.125 6.957031 C 102.773438 7.199219 103.394531 7.492188 103.988281 7.84375 C 104.585938 8.191406 105.144531 8.589844 105.671875 9.039062 C 133.269531 35.011719 160.878906 60.984375 188.5 86.957031 C 193.988281 92.164062 189.367188 100.125 180.859375 100.125 Z M 180.859375 100.125 " fill-opacity="1" fill-rule="nonzero"/></g></svg>