<svg xmlns="http://www.w3.org/2000/svg" xmlns:xlink="http://www.w3.org/1999/xlink" width="256" zoomAndPan="magnify" viewBox="0 0 192 191.999996" height="256" preserveAspectRatio="xMidYMid meet" version="1.0"><defs><g/><clipPath id="89349009df"><path d="M 0.558594 1 L 1 1 L 1 2.558594 L 0.558594 2.558594 Z M 0.558594 1 " clip-rule="nonzero"/></clipPath><clipPath id="fe6f3424fe"><rect x="0" width="2" y="0" height="3"/></clipPath></defs><path fill="#d76b73" d="M 61.867188 133.71875 L 49.3125 90 C 49.3125 90 37.535156 93.398438 33.621094 94.46875 C 24.5 96.976562 10.320312 105.839844 15.082031 122.308594 C 20.734375 141.914062 37.386719 140.699219 46.210938 138.1875 C 51.710938 136.671875 61.867188 133.71875 61.867188 133.71875 Z M 61.867188 133.71875 " fill-opacity="1" fill-rule="nonzero"/><path fill="#303030" d="M 124.121094 151.035156 L 169.171875 144.683594 C 169.171875 144.683594 167.472656 132.574219 166.917969 128.511719 C 165.699219 119.132812 158.90625 103.847656 141.917969 106.246094 C 121.722656 109.089844 120.613281 125.78125 121.832031 134.863281 C 122.609375 140.625 124.121094 151.035156 124.121094 151.035156 Z M 124.121094 151.035156 " fill-opacity="1" fill-rule="nonzero"/><path fill="#74aedb" d="M 149.15625 54.738281 L 107.503906 36.457031 C 107.503906 36.457031 102.59375 47.683594 100.894531 51.375 C 96.980469 59.980469 94.730469 76.558594 110.460938 83.464844 C 129.144531 91.660156 138.855469 78.074219 142.585938 69.691406 C 144.949219 64.410156 149.15625 54.738281 149.15625 54.738281 Z M 149.15625 54.738281 " fill-opacity="1" fill-rule="nonzero"/><path fill="#5ce1e6" d="M 61.867188 133.71875 L 49.3125 90 C 49.3125 90 61.089844 86.675781 65.003906 85.53125 C 74.050781 82.875 90.816406 82.910156 95.542969 99.378906 C 101.191406 118.984375 86.386719 126.738281 77.597656 129.289062 C 71.984375 130.875 61.867188 133.71875 61.867188 133.71875 Z M 61.867188 133.71875 " fill-opacity="1" fill-rule="nonzero"/><path fill="#5ce1e6" d="M 124.121094 151.035156 L 169.171875 144.683594 C 169.171875 144.683594 170.792969 156.796875 171.421875 160.820312 C 172.789062 170.164062 170.425781 186.742188 153.441406 189.140625 C 133.242188 191.984375 127.628906 176.253906 126.335938 167.210938 C 125.523438 161.484375 124.121094 151.035156 124.121094 151.035156 Z M 124.121094 151.035156 " fill-opacity="1" fill-rule="nonzero"/><path fill="#5ce1e6" d="M 149.15625 54.738281 L 107.503906 36.457031 C 107.503906 36.457031 112.492188 25.308594 114.078125 21.542969 C 117.808594 12.863281 128.554688 0.015625 144.246094 6.917969 C 162.929688 15.117188 159.421875 31.4375 155.730469 39.820312 C 153.476562 45.136719 149.15625 54.738281 149.15625 54.738281 Z M 149.15625 54.738281 " fill-opacity="1" fill-rule="nonzero"/><path fill="#ffffff" d="M 40.265625 130.691406 C 40.082031 130.0625 39.492188 129.695312 38.898438 129.769531 C 36.832031 130.101562 34.691406 129.695312 32.769531 128.585938 C 30.851562 127.476562 29.410156 125.78125 28.597656 123.75 C 28.339844 123.15625 27.710938 122.824219 27.121094 122.972656 C 26.417969 123.15625 26.050781 123.933594 26.34375 124.636719 C 27.378906 127.21875 29.226562 129.363281 31.625 130.765625 C 34.027344 132.167969 36.722656 132.683594 39.34375 132.242188 C 40.042969 132.128906 40.449219 131.390625 40.265625 130.691406 Z M 40.265625 130.691406 " fill-opacity="1" fill-rule="nonzero"/><path fill="#ffffff" d="M 130.140625 130.101562 C 130.769531 130.027344 131.25 129.472656 131.25 128.84375 C 131.210938 126.738281 131.914062 124.671875 133.277344 122.972656 C 134.644531 121.238281 136.527344 120.054688 138.671875 119.503906 C 139.296875 119.355469 139.703125 118.765625 139.628906 118.171875 C 139.519531 117.472656 138.816406 116.992188 138.078125 117.175781 C 135.382812 117.839844 132.984375 119.390625 131.285156 121.535156 C 129.550781 123.710938 128.699219 126.296875 128.738281 128.957031 C 128.738281 129.65625 129.402344 130.210938 130.140625 130.101562 Z M 130.140625 130.101562 " fill-opacity="1" fill-rule="nonzero"/><path fill="#ffffff" d="M 133.019531 69.394531 C 132.429688 69.136719 131.765625 69.359375 131.433594 69.875 C 130.363281 71.683594 128.664062 73.089844 126.632812 73.828125 C 124.566406 74.566406 122.3125 74.601562 120.207031 73.9375 C 119.582031 73.753906 118.953125 74.011719 118.695312 74.566406 C 118.398438 75.230469 118.769531 76.003906 119.46875 76.226562 C 122.128906 77.074219 124.972656 77.039062 127.554688 76.078125 C 130.175781 75.117188 132.28125 73.382812 133.648438 71.09375 C 134.019531 70.503906 133.722656 69.691406 133.019531 69.394531 Z M 133.019531 69.394531 " fill-opacity="1" fill-rule="nonzero"/><g transform="matrix(1, 0, 0, 1, 190, 182)"><g clip-path="url(#fe6f3424fe)"><g clip-path="url(#89349009df)"><g fill="#000000" fill-opacity="1"><g transform="translate(0.793618, 1.999986)"><g><path d="M 0.078125 -0.046875 C 0.078125 -0.078125 0.0820312 -0.0976562 0.09375 -0.109375 C 0.101562 -0.117188 0.117188 -0.125 0.140625 -0.125 C 0.148438 -0.125 0.160156 -0.117188 0.171875 -0.109375 C 0.191406 -0.0976562 0.203125 -0.078125 0.203125 -0.046875 C 0.203125 -0.0234375 0.191406 -0.0078125 0.171875 0 C 0.160156 0.0078125 0.148438 0.015625 0.140625 0.015625 C 0.117188 0.015625 0.101562 0.0078125 0.09375 0 C 0.0820312 -0.0078125 0.078125 -0.0234375 0.078125 -0.046875 Z M 0.078125 -0.046875 "/></g></g></g></g></g></g></svg>