<svg xmlns="http://www.w3.org/2000/svg" xmlns:xlink="http://www.w3.org/1999/xlink" width="256" zoomAndPan="magnify" viewBox="0 0 192 191.999996" height="256" preserveAspectRatio="xMidYMid meet" version="1.0"><path fill="#000000" d="M 188.890625 191.984375 L 3.125 191.984375 C 1.445312 191.984375 0.0820312 190.621094 0.0820312 188.941406 L 0.0820312 171.585938 C 0.0820312 142.714844 23.570312 119.226562 52.441406 119.226562 L 139.574219 119.226562 C 168.445312 119.226562 191.933594 142.714844 191.933594 171.585938 L 191.933594 188.941406 C 191.933594 190.621094 190.570312 191.984375 188.890625 191.984375 Z M 96.007812 111.039062 C 65.394531 111.039062 40.488281 86.132812 40.488281 55.519531 C 40.488281 24.90625 65.394531 0 96.007812 0 C 126.621094 0 151.527344 24.90625 151.527344 55.519531 C 151.527344 86.132812 126.621094 111.039062 96.007812 111.039062 Z M 96.007812 111.039062 " fill-opacity="1" fill-rule="nonzero"/></svg>