<svg xmlns="http://www.w3.org/2000/svg" xmlns:xlink="http://www.w3.org/1999/xlink" width="256" zoomAndPan="magnify" viewBox="0 0 192 191.999996" height="256" preserveAspectRatio="xMidYMid meet" version="1.0"><defs><g/><clipPath id="3cb6f76c51"><path d="M 152 74 L 181.441406 74 L 181.441406 95 L 152 95 Z M 152 74 " clip-rule="nonzero"/></clipPath><clipPath id="05664d107b"><path d="M 10.441406 22 L 110 22 L 110 104 L 10.441406 104 Z M 10.441406 22 " clip-rule="nonzero"/></clipPath><clipPath id="96552f0842"><path d="M 152 74 L 181.441406 74 L 181.441406 90 L 152 90 Z M 152 74 " clip-rule="nonzero"/></clipPath><clipPath id="f7a5361ae5"><path d="M 0.558594 1 L 1 1 L 1 2.558594 L 0.558594 2.558594 Z M 0.558594 1 " clip-rule="nonzero"/></clipPath><clipPath id="eec59f137e"><rect x="0" width="2" y="0" height="3"/></clipPath></defs><path fill="#4966f2" d="M 64.890625 154.820312 C 59.472656 187.589844 60.503906 187.574219 58.363281 190.316406 C 57.945312 190.851562 55.65625 193.136719 55.800781 191.246094 C 55.992188 185.828125 53.679688 186.851562 48.566406 184.84375 C 47.582031 184.617188 46.597656 179.570312 45.609375 179.382812 C 43.945312 179.003906 41.671875 187.8125 40.800781 186.675781 C 39.929688 185.539062 40.347656 175.328125 40.195312 173.660156 C 40.179688 173.359375 39.425781 158.378906 39.398438 158.078125 C 38.878906 154.429688 39.128906 148.695312 41.066406 144.925781 C 44.359375 138.4375 51.074219 135.808594 57.308594 137.460938 C 58.03125 137.652344 58.75 137.742188 59.425781 138.089844 C 61.496094 139.15625 63.175781 141.484375 64.019531 143.523438 C 65.5 147.085938 65.535156 151.066406 64.890625 154.820312 Z M 64.890625 154.820312 " fill-opacity="1" fill-rule="nonzero"/><path fill="#1f39de" d="M 39.378906 158.097656 C 38.910156 154.078125 39.164062 148.652344 41.074219 144.910156 C 43.972656 139.242188 49.417969 136.574219 54.488281 136.996094 C 54.78125 137.019531 55.585938 136.992188 55.800781 137.207031 C 56.140625 137.558594 55.308594 137.6875 54.9375 137.859375 C 53.414062 138.550781 52.335938 138.847656 51 140.59375 C 48.976562 143.207031 48.628906 146.882812 48.53125 150.179688 C 48.234375 160.132812 49.09375 172.964844 48.863281 182.917969 C 47.871094 182.695312 46.585938 184.351562 45.597656 184.128906 C 43.960938 183.765625 41.683594 187.300781 40.789062 186.152344 C 39.921875 185.027344 40.347656 175.328125 40.203125 173.640625 C 39.285156 156.691406 39.476562 158.921875 39.378906 158.097656 Z M 39.378906 158.097656 " fill-opacity="1" fill-rule="nonzero"/><path fill="#1f39de" d="M 57.578125 145.351562 C 57.894531 145.371094 58.207031 145.4375 58.515625 145.550781 C 58.820312 145.664062 59.117188 145.816406 59.398438 146.019531 C 59.683594 146.21875 59.949219 146.457031 60.195312 146.734375 C 60.445312 147.015625 60.671875 147.328125 60.875 147.675781 C 61.078125 148.023438 61.257812 148.398438 61.410156 148.804688 C 61.5625 149.207031 61.683594 149.628906 61.777344 150.074219 C 61.871094 150.515625 61.933594 150.972656 61.964844 151.4375 C 62 151.90625 62 152.375 61.96875 152.84375 C 61.9375 153.316406 61.878906 153.78125 61.785156 154.238281 C 61.691406 154.699219 61.570312 155.140625 61.421875 155.566406 C 61.269531 155.996094 61.09375 156.398438 60.890625 156.78125 C 60.6875 157.160156 60.464844 157.511719 60.214844 157.828125 C 59.96875 158.148438 59.703125 158.429688 59.421875 158.671875 C 59.140625 158.917969 58.847656 159.121094 58.539062 159.28125 C 58.234375 159.445312 57.921875 159.558594 57.601562 159.632812 C 57.28125 159.703125 56.964844 159.730469 56.644531 159.707031 C 56.324219 159.6875 56.011719 159.621094 55.707031 159.507812 C 55.398438 159.398438 55.105469 159.242188 54.820312 159.042969 C 54.539062 158.839844 54.273438 158.601562 54.023438 158.324219 C 53.777344 158.042969 53.550781 157.730469 53.347656 157.382812 C 53.140625 157.035156 52.964844 156.660156 52.8125 156.253906 C 52.660156 155.851562 52.539062 155.429688 52.445312 154.984375 C 52.351562 154.542969 52.285156 154.085938 52.253906 153.621094 C 52.222656 153.152344 52.222656 152.683594 52.253906 152.214844 C 52.28125 151.742188 52.34375 151.277344 52.4375 150.820312 C 52.527344 150.359375 52.648438 149.917969 52.800781 149.492188 C 52.949219 149.0625 53.128906 148.660156 53.328125 148.277344 C 53.53125 147.898438 53.757812 147.546875 54.003906 147.230469 C 54.25 146.910156 54.515625 146.628906 54.796875 146.386719 C 55.082031 146.140625 55.375 145.9375 55.683594 145.777344 C 55.988281 145.613281 56.300781 145.5 56.621094 145.425781 C 56.9375 145.355469 57.257812 145.328125 57.578125 145.351562 Z M 57.578125 145.351562 " fill-opacity="1" fill-rule="nonzero"/><path fill="#1f39de" d="M 58.300781 188.820312 C 58.300781 189.554688 58.191406 190.816406 57.710938 191.414062 C 57.132812 192.132812 55.605469 191.96875 54.242188 191.96875 C 48.253906 191.96875 43.132812 191.96875 37.144531 191.96875 C 35.9375 191.96875 34.71875 192.066406 34.28125 190.703125 C 34.085938 190.097656 33.980469 189.460938 33.980469 188.820312 C 33.980469 184.121094 39.398438 180.292969 46.140625 180.292969 C 52.847656 180.292969 58.300781 184.121094 58.300781 188.820312 Z M 58.300781 188.820312 " fill-opacity="1" fill-rule="nonzero"/><path fill="#4966f2" d="M 43.792969 185.789062 C 42.695312 187.761719 42.882812 189.882812 42.882812 191.96875 C 42.046875 191.96875 41.210938 191.96875 40.371094 191.96875 C 40 191.96875 39.535156 192.113281 39.292969 191.789062 C 39.015625 191.421875 39.214844 190.644531 39.335938 190.257812 C 39.742188 188.964844 40.074219 187.277344 41.105469 186.320312 C 41.632812 185.828125 42.125 185.21875 42.847656 184.992188 C 43.148438 184.878906 43.527344 184.765625 43.792969 184.917969 C 44.171875 185.105469 43.945312 185.484375 43.792969 185.789062 Z M 43.792969 185.789062 " fill-opacity="1" fill-rule="nonzero"/><path fill="#4966f2" d="M 50.382812 187.078125 C 49.816406 188.667969 49.855469 190.335938 49.816406 191.96875 L 46.859375 191.96875 C 46.710938 189.84375 47.164062 187.835938 48.679688 186.128906 C 49.132812 185.636719 49.777344 185.03125 50.421875 185.410156 C 51.027344 185.75 50.574219 186.507812 50.382812 187.078125 Z M 50.382812 187.078125 " fill-opacity="1" fill-rule="nonzero"/><path fill="#4966f2" d="M 133.042969 154.820312 C 127.625 187.589844 128.65625 187.574219 126.515625 190.316406 C 126.097656 190.851562 123.808594 193.136719 123.953125 191.246094 C 124.140625 185.828125 121.832031 186.851562 116.71875 184.84375 C 115.734375 184.617188 114.75 179.570312 113.761719 179.382812 C 112.097656 179.003906 109.824219 187.8125 108.953125 186.675781 C 108.082031 185.539062 108.5 175.328125 108.347656 173.660156 C 108.332031 173.359375 107.578125 158.378906 107.550781 158.078125 C 107.03125 154.429688 107.28125 148.695312 109.21875 144.925781 C 112.511719 138.4375 119.226562 135.808594 125.460938 137.460938 C 126.183594 137.652344 126.902344 137.742188 127.578125 138.089844 C 129.648438 139.15625 131.328125 141.484375 132.171875 143.523438 C 133.648438 147.085938 133.6875 151.066406 133.042969 154.820312 Z M 133.042969 154.820312 " fill-opacity="1" fill-rule="nonzero"/><path fill="#1f39de" d="M 107.53125 158.097656 C 107.0625 154.078125 107.316406 148.652344 109.226562 144.910156 C 112.125 139.242188 117.570312 136.574219 122.640625 136.996094 C 122.933594 137.019531 123.738281 136.992188 123.953125 137.207031 C 124.292969 137.558594 123.457031 137.6875 123.089844 137.859375 C 121.566406 138.550781 120.488281 138.847656 119.152344 140.59375 C 117.128906 143.207031 116.78125 146.882812 116.683594 150.179688 C 116.386719 160.132812 117.246094 172.964844 117.011719 182.917969 C 116.023438 182.695312 114.738281 184.351562 113.75 184.128906 C 112.113281 183.765625 109.832031 187.300781 108.941406 186.152344 C 108.074219 185.027344 108.5 175.328125 108.355469 173.640625 C 107.4375 156.691406 107.628906 158.921875 107.53125 158.097656 Z M 107.53125 158.097656 " fill-opacity="1" fill-rule="nonzero"/><path fill="#1f39de" d="M 125.730469 145.351562 C 126.046875 145.371094 126.359375 145.4375 126.667969 145.550781 C 126.972656 145.664062 127.269531 145.816406 127.550781 146.019531 C 127.835938 146.21875 128.101562 146.457031 128.347656 146.734375 C 128.597656 147.015625 128.824219 147.328125 129.027344 147.675781 C 129.230469 148.023438 129.410156 148.398438 129.5625 148.804688 C 129.714844 149.207031 129.835938 149.628906 129.929688 150.074219 C 130.023438 150.515625 130.085938 150.972656 130.117188 151.4375 C 130.152344 151.90625 130.152344 152.375 130.121094 152.84375 C 130.089844 153.316406 130.027344 153.78125 129.9375 154.238281 C 129.84375 154.699219 129.722656 155.140625 129.574219 155.566406 C 129.421875 155.996094 129.246094 156.398438 129.042969 156.78125 C 128.839844 157.160156 128.617188 157.511719 128.367188 157.828125 C 128.121094 158.148438 127.855469 158.429688 127.574219 158.671875 C 127.292969 158.917969 127 159.121094 126.691406 159.28125 C 126.386719 159.445312 126.074219 159.558594 125.753906 159.632812 C 125.433594 159.703125 125.117188 159.730469 124.796875 159.707031 C 124.476562 159.6875 124.164062 159.621094 123.859375 159.507812 C 123.550781 159.394531 123.257812 159.242188 122.972656 159.039062 C 122.691406 158.839844 122.425781 158.601562 122.175781 158.324219 C 121.929688 158.042969 121.703125 157.730469 121.5 157.382812 C 121.292969 157.035156 121.117188 156.660156 120.964844 156.253906 C 120.8125 155.851562 120.691406 155.429688 120.597656 154.984375 C 120.503906 154.542969 120.4375 154.085938 120.40625 153.621094 C 120.375 153.152344 120.375 152.683594 120.40625 152.214844 C 120.433594 151.742188 120.496094 151.277344 120.589844 150.820312 C 120.679688 150.359375 120.800781 149.917969 120.953125 149.492188 C 121.101562 149.0625 121.277344 148.660156 121.480469 148.277344 C 121.683594 147.898438 121.910156 147.546875 122.15625 147.230469 C 122.402344 146.910156 122.667969 146.628906 122.949219 146.386719 C 123.234375 146.140625 123.527344 145.9375 123.832031 145.777344 C 124.140625 145.613281 124.453125 145.5 124.773438 145.425781 C 125.089844 145.355469 125.410156 145.328125 125.730469 145.351562 Z M 125.730469 145.351562 " fill-opacity="1" fill-rule="nonzero"/><path fill="#1f39de" d="M 126.453125 188.820312 C 126.453125 189.554688 126.34375 190.816406 125.859375 191.414062 C 125.28125 192.132812 123.757812 191.96875 122.394531 191.96875 C 116.40625 191.96875 111.285156 191.96875 105.296875 191.96875 C 104.089844 191.96875 102.871094 192.066406 102.433594 190.703125 C 102.234375 190.097656 102.132812 189.460938 102.132812 188.820312 C 102.132812 184.121094 107.550781 180.292969 114.292969 180.292969 C 121 180.292969 126.453125 184.121094 126.453125 188.820312 Z M 126.453125 188.820312 " fill-opacity="1" fill-rule="nonzero"/><path fill="#4966f2" d="M 111.945312 185.789062 C 110.847656 187.761719 111.035156 189.882812 111.035156 191.96875 C 110.199219 191.96875 109.363281 191.96875 108.523438 191.96875 C 108.152344 191.96875 107.6875 192.113281 107.445312 191.789062 C 107.167969 191.421875 107.367188 190.644531 107.488281 190.257812 C 107.894531 188.964844 108.226562 187.277344 109.257812 186.320312 C 109.785156 185.828125 110.277344 185.21875 111 184.992188 C 111.300781 184.878906 111.679688 184.765625 111.945312 184.917969 C 112.324219 185.105469 112.097656 185.484375 111.945312 185.789062 Z M 111.945312 185.789062 " fill-opacity="1" fill-rule="nonzero"/><path fill="#4966f2" d="M 118.535156 187.078125 C 117.96875 188.667969 118.007812 190.335938 117.96875 191.96875 L 115.011719 191.96875 C 114.863281 189.84375 115.316406 187.835938 116.832031 186.128906 C 117.285156 185.636719 117.929688 185.03125 118.574219 185.410156 C 119.179688 185.75 118.726562 186.507812 118.535156 187.078125 Z M 118.535156 187.078125 " fill-opacity="1" fill-rule="nonzero"/><path fill="#dfe5ff" d="M 163.761719 137.34375 L 163.875 137.34375 C 163.800781 137.574219 163.761719 137.839844 163.6875 138.101562 C 163.746094 140.007812 163.621094 141.675781 162.550781 144.015625 C 161.335938 146.746094 159.179688 149.132812 156.488281 150.460938 C 152.738281 152.355469 148.34375 152.316406 144.175781 152.242188 C 142.738281 152.203125 141.261719 152.203125 139.820312 152.167969 C 139.820312 152.203125 139.785156 152.28125 139.785156 152.316406 L 128.988281 152.316406 C 127.738281 152.316406 126.976562 155.453125 126.898438 155.113281 C 113.640625 154.921875 105.566406 160.203125 92.34375 160.011719 C 89.351562 159.972656 81.375 151.292969 78.644531 150.042969 C 76.714844 149.171875 75.007812 147.542969 74.289062 145.609375 C 74.289062 145.609375 74.289062 145.609375 74.289062 145.570312 C 73.949219 144.925781 73.683594 144.246094 73.417969 143.523438 C 71.144531 137.34375 70.652344 131.015625 71.449219 124.496094 C 71.636719 123.09375 71.902344 122.335938 73.34375 121.878906 C 77.886719 120.363281 82.167969 118.242188 85.957031 115.359375 C 89.78125 112.515625 93.382812 109.371094 95.273438 104.824219 C 130.195312 104.824219 130.179688 104.695312 131.789062 104.898438 C 142.726562 105.738281 151.066406 106.597656 158.15625 114.109375 C 162.625 118.773438 164.519531 124.835938 164.480469 131.242188 C 164.480469 136.265625 163.953125 136.578125 163.761719 137.34375 Z M 163.761719 137.34375 " fill-opacity="1" fill-rule="nonzero"/><path fill="#1f39de" d="M 157.792969 115.171875 C 155.664062 114.1875 154.132812 112.183594 152.136719 110.972656 C 152.8125 110.464844 153.375 109.875 153.847656 109.082031 C 155.394531 106.492188 156.714844 103.769531 158.066406 101.050781 C 159.125 98.914062 159.851562 96.550781 161.351562 94.691406 C 163.082031 96.0625 163.457031 97.949219 162.925781 100.121094 C 161.652344 105.324219 159.710938 110.242188 157.792969 115.171875 Z M 157.792969 115.171875 " fill-opacity="1" fill-rule="nonzero"/><path fill="#4966f2" d="M 161.351562 94.691406 C 159.851562 96.550781 159.125 98.914062 158.066406 101.050781 C 156.714844 103.769531 155.394531 106.492188 153.847656 109.082031 C 153.375 109.875 152.8125 110.464844 152.136719 110.972656 C 150.496094 110.109375 148.859375 109.25 147.21875 108.390625 C 150.390625 104.65625 152.859375 100.308594 155.722656 96.304688 C 157.421875 93.933594 158.945312 93.503906 161.351562 94.691406 Z M 161.351562 94.691406 " fill-opacity="1" fill-rule="nonzero"/><path fill="#4966f2" d="M 43.410156 29.417969 C 43.765625 31.5625 42.707031 33.953125 42.101562 36.027344 C 40.085938 42.957031 36.320312 49.601562 29.546875 52.082031 C 26.539062 53.183594 23.101562 53.242188 20.160156 51.964844 C 12.808594 48.765625 13.230469 40.285156 13.210938 33.5625 C 13.1875 24.742188 13.851562 15.839844 15.765625 7.214844 C 17.78125 -1.867188 22.71875 -1.996094 28.683594 4.714844 C 34.269531 11 42.027344 21.0625 43.410156 29.417969 Z M 43.410156 29.417969 " fill-opacity="1" fill-rule="nonzero"/><path fill="#ffb908" d="M 19.328125 43.082031 C 18.382812 41.914062 17.972656 40.652344 17.863281 39.164062 C 17.234375 30.613281 17.183594 15.453125 20 7.429688 C 21.980469 5.828125 23.257812 5.890625 25.09375 7.808594 C 32.804688 15.859375 35.925781 27.183594 37.609375 29.5625 C 38.574219 30.921875 37.917969 31.28125 37.695312 32.867188 C 37.433594 34.707031 36.734375 36.453125 36.039062 38.179688 C 35.046875 40.644531 34.460938 41.519531 32.070312 42.5 C 28.925781 43.789062 25.492188 44.371094 22.097656 44.203125 C 20.886719 44.144531 20.089844 44.03125 19.328125 43.082031 Z M 19.328125 43.082031 " fill-opacity="1" fill-rule="nonzero"/><path fill="#4966f2" d="M 76.535156 29.417969 C 76.179688 31.5625 77.238281 33.953125 77.839844 36.027344 C 79.859375 42.957031 83.621094 49.601562 90.398438 52.082031 C 93.40625 53.183594 96.84375 53.242188 99.785156 51.964844 C 107.136719 48.765625 106.714844 40.285156 106.730469 33.5625 C 106.757812 24.742188 106.09375 15.839844 104.179688 7.214844 C 102.359375 -0.984375 97.847656 -2.699219 91.261719 4.714844 C 85.648438 11.035156 77.917969 21.035156 76.535156 29.417969 Z M 76.535156 29.417969 " fill-opacity="1" fill-rule="nonzero"/><path fill="#ffb908" d="M 100.617188 43.082031 C 101.5625 41.914062 101.972656 40.652344 102.082031 39.164062 C 102.710938 30.613281 102.761719 15.453125 99.945312 7.429688 C 97.964844 5.828125 96.6875 5.890625 94.851562 7.808594 C 87.136719 15.859375 84.019531 27.183594 82.332031 29.5625 C 81.371094 30.921875 82.027344 31.28125 82.25 32.867188 C 82.511719 34.707031 83.210938 36.453125 83.90625 38.179688 C 84.898438 40.644531 85.480469 41.519531 87.875 42.5 C 91.019531 43.789062 94.453125 44.371094 97.84375 44.203125 C 99.058594 44.144531 99.851562 44.03125 100.617188 43.082031 Z M 100.617188 43.082031 " fill-opacity="1" fill-rule="nonzero"/><g clip-path="url(#3cb6f76c51)"><path fill="#02c66f" d="M 181.054688 87.996094 C 180.875 87.574219 180.660156 87.003906 180.398438 86.453125 C 176.824219 78.9375 167.855469 73.683594 159.179688 74.089844 C 157.554688 74.164062 155.929688 74.425781 154.332031 74.730469 C 153.359375 74.917969 152.792969 75.632812 153 76.691406 C 153.347656 78.472656 154.917969 77.863281 156.191406 77.609375 C 164.671875 75.929688 173.121094 79.832031 177.320312 87.363281 C 177.652344 87.960938 177.957031 88.570312 178.3125 89.148438 C 178.683594 89.75 179.261719 89.910156 179.910156 89.703125 C 180.644531 89.472656 180.980469 88.914062 181.054688 87.996094 Z M 159.855469 80.585938 C 159.148438 80.6875 158.136719 80.816406 157.132812 80.976562 C 156.117188 81.136719 155.15625 81.523438 155.34375 82.742188 C 155.535156 83.980469 156.453125 84.257812 157.65625 84.070312 C 163.761719 83.121094 168.492188 85.105469 171.414062 90.738281 C 171.992188 91.851562 172.765625 92.296875 173.878906 91.675781 C 174.964844 91.066406 174.761719 90.113281 174.296875 89.1875 C 174.082031 88.761719 173.859375 88.335938 173.59375 87.945312 C 170.386719 83.179688 165.8125 80.914062 159.855469 80.585938 Z M 160.1875 90.070312 C 162.109375 90.167969 164.019531 90.710938 165.152344 92.722656 C 165.71875 93.726562 166.382812 94.480469 167.5625 93.730469 C 168.746094 92.976562 168.304688 91.910156 167.734375 91.042969 C 165.898438 88.246094 163.175781 87.074219 159.914062 87.082031 C 158.804688 87.082031 157.546875 87.199219 157.585938 88.714844 C 157.621094 90.261719 158.796875 90.28125 160.1875 90.070312 Z M 160.1875 90.070312 " fill-opacity="1" fill-rule="nonzero"/></g><g clip-path="url(#05664d107b)"><path fill="#dfe5ff" d="M 109.480469 74.460938 C 109.433594 76.3125 108.488281 78.824219 108.34375 79.539062 C 106.648438 87.84375 95.207031 95.101562 87.054688 98.039062 C 85.957031 98.453125 84.78125 98.871094 83.644531 99.289062 C 83.609375 99.289062 83.570312 99.324219 83.53125 99.324219 C 77.757812 101.707031 66.953125 103.652344 60.613281 103.304688 C 54.34375 102.914062 45.503906 103.339844 32.28125 97.734375 C 32.207031 97.710938 30.28125 96.742188 29.707031 96.484375 C 27.082031 95.28125 23.878906 93.382812 22.015625 92.046875 C 21.976562 92.046875 21.941406 91.972656 21.941406 91.972656 C 16.746094 88.664062 13.554688 84.308594 11.863281 79.234375 C 11.75 78.933594 11.675781 78.628906 11.597656 78.289062 C 10.386719 74.117188 10.765625 69.949219 11.597656 65.816406 C 14.589844 51.070312 22.660156 36.097656 35.957031 28.328125 C 40.511719 25.667969 45.703125 24.160156 50.9375 23.628906 C 63.695312 22.335938 74.214844 22.433594 85.386719 29.050781 C 100.351562 37.84375 109.933594 57.328125 109.480469 74.460938 Z M 109.480469 74.460938 " fill-opacity="1" fill-rule="nonzero"/></g><path fill="#a6b7e2" d="M 82 99.445312 C 82.636719 101.601562 81.566406 102.941406 79.835938 103.96875 C 69.726562 109.953125 58.679688 111.285156 47.230469 110.402344 C 45.4375 110.265625 43.65625 109.710938 41.929688 109.019531 C 40.269531 108.355469 39.648438 107.257812 39.6875 105.566406 C 39.722656 104.003906 39.652344 102.441406 39.628906 100.875 C 39.628906 100.875 39.636719 100.816406 39.636719 100.816406 C 40.027344 99.609375 40.835938 99.902344 41.726562 100.15625 C 55.425781 104.066406 69.65625 103.382812 82 99.445312 Z M 82 99.445312 " fill-opacity="1" fill-rule="nonzero"/><path fill="#c2cef2" d="M 108.496094 79.007812 C 108.207031 79.730469 108.191406 81.453125 106.183594 84.46875 C 105.957031 84.847656 104.710938 86.425781 103.003906 88.066406 C 102.660156 88.371094 102.394531 88.710938 102.09375 89.054688 C 99.113281 92.035156 93.441406 95.738281 87.054688 98.039062 C 85.957031 98.453125 84.78125 98.871094 83.644531 99.289062 C 83.609375 99.289062 83.570312 99.324219 83.53125 99.324219 C 77.757812 101.707031 66.953125 103.652344 60.613281 103.304688 C 54.34375 102.914062 45.503906 103.339844 32.28125 97.734375 C 32.207031 97.710938 30.28125 96.742188 29.707031 96.484375 C 27.082031 95.28125 23.878906 93.382812 22.015625 92.046875 C 21.976562 92.046875 21.941406 91.972656 21.941406 91.972656 C 16.746094 88.664062 13.554688 84.308594 11.863281 79.234375 C 11.75 78.933594 11.675781 78.628906 11.597656 78.289062 C 30.265625 87.703125 29.121094 87.289062 36.183594 89.8125 C 39.8125 91.148438 33.828125 87.203125 41.070312 74.839844 C 41.410156 74.269531 41.75 73.664062 42.054688 73.09375 C 42.886719 72.488281 43.71875 71.882812 44.515625 71.277344 C 42.140625 77.222656 38.148438 78.609375 38.910156 89.28125 C 38.984375 90.644531 39.820312 91.328125 41.183594 91.78125 C 49.0625 94.285156 57.128906 95.082031 65.351562 94.585938 C 70.578125 94.246094 75.617188 92.882812 80.617188 91.367188 C 81.828125 90.988281 82.09375 90.191406 82.167969 89.054688 C 82.625 83.671875 81.03125 78.855469 78.117188 74.421875 C 77.625 73.664062 77.054688 72.980469 77.394531 71.996094 C 77.851562 72.070312 78.191406 72.375 78.496094 72.714844 C 78.609375 72.945312 78.757812 73.132812 78.910156 73.210938 C 80.578125 76.242188 82.585938 79.085938 83.117188 82.648438 C 83.417969 84.695312 84.101562 86.664062 83.496094 88.863281 C 83.039062 90.457031 84.214844 90.039062 85.085938 89.734375 C 97.542969 85.324219 106.488281 79.230469 108.496094 79.007812 Z M 108.496094 79.007812 " fill-opacity="1" fill-rule="nonzero"/><g clip-path="url(#96552f0842)"><path fill="#02c66f" d="M 181.054688 87.996094 C 180.980469 88.914062 180.644531 89.472656 179.910156 89.703125 C 178.527344 90.140625 178.222656 88.984375 177.320312 87.363281 C 173.121094 79.832031 164.671875 75.929688 156.191406 77.609375 C 154.832031 77.878906 153.347656 78.460938 153 76.691406 C 152.792969 75.632812 153.359375 74.917969 154.332031 74.730469 C 155.929688 74.425781 157.554688 74.164062 159.179688 74.089844 C 167.855469 73.683594 176.824219 78.9375 180.398438 86.453125 C 180.660156 87.003906 180.875 87.574219 181.054688 87.996094 Z M 181.054688 87.996094 " fill-opacity="1" fill-rule="nonzero"/></g><path fill="#02c66f" d="M 159.855469 80.585938 C 167.019531 80.980469 171.914062 84.421875 174.296875 89.1875 C 174.761719 90.113281 174.964844 91.066406 173.878906 91.675781 C 172.765625 92.296875 171.992188 91.851562 171.414062 90.738281 C 168.492188 85.105469 163.761719 83.121094 157.65625 84.070312 C 156.453125 84.257812 155.535156 83.980469 155.34375 82.742188 C 155.15625 81.523438 156.117188 81.136719 157.132812 80.976562 C 158.136719 80.816406 159.148438 80.6875 159.855469 80.585938 Z M 159.855469 80.585938 " fill-opacity="1" fill-rule="nonzero"/><path fill="#02c66f" d="M 160.1875 90.070312 C 158.796875 90.28125 157.621094 90.261719 157.585938 88.714844 C 157.546875 87.199219 158.804688 87.082031 159.914062 87.082031 C 163.175781 87.074219 165.898438 88.246094 167.734375 91.042969 C 168.304688 91.910156 168.746094 92.976562 167.5625 93.730469 C 166.382812 94.480469 165.71875 93.726562 165.152344 92.722656 C 164.019531 90.710938 162.109375 90.167969 160.1875 90.070312 Z M 160.1875 90.070312 " fill-opacity="1" fill-rule="nonzero"/><path fill="#c2cef2" d="M 154.632812 161.71875 C 153.949219 161.984375 137.8125 161.679688 137.058594 161.679688 C 104.664062 161.625 115.835938 161.644531 113.417969 161.644531 C 112.359375 161.644531 109.175781 162.023438 108.722656 161.871094 C 108.023438 161.578125 110.777344 161.71875 74.367188 161.71875 C 68.121094 161.71875 60.175781 162.113281 54.289062 160.46875 C 49.363281 159.066406 44.628906 156.828125 41.222656 152.886719 C 41.105469 152.773438 41.03125 152.660156 40.917969 152.546875 C 38.949219 150.308594 36.75 147.808594 35.578125 145.191406 C 31.148438 135.917969 30.78125 129.910156 30.652344 121.007812 C 30.613281 120.402344 30.460938 119.71875 30.992188 119.226562 C 30.957031 119.1875 30.917969 119.1875 30.878906 119.152344 C 31.03125 117.824219 31.070312 116.535156 31.75 115.359375 C 39.933594 121.425781 49.328125 121.578125 58.871094 120.96875 C 64.441406 120.628906 69.933594 119.644531 75.160156 117.632812 C 82.320312 114.941406 88.835938 111.265625 93.382812 104.824219 C 93.875 104.699219 94.402344 104.761719 95.046875 104.824219 C 93.152344 109.371094 89.554688 112.515625 85.730469 115.359375 C 81.941406 118.242188 77.660156 120.363281 73.117188 121.878906 C 71.675781 122.335938 71.410156 123.09375 71.222656 124.496094 C 70.425781 131.015625 70.917969 137.34375 73.191406 143.523438 C 73.496094 144.394531 73.871094 145.914062 74.59375 146.519531 C 75.351562 147.199219 77.09375 147.464844 78.039062 147.808594 C 95.378906 153.503906 103.410156 151.800781 121.640625 152.316406 C 123.003906 152.355469 123.683594 151.902344 124.289062 150.6875 C 125.691406 147.921875 126.601562 145.039062 127.359375 142.046875 C 127.8125 140.265625 127.8125 138.21875 127.964844 136.359375 C 128.820312 124.375 128.601562 114.585938 121.488281 104.824219 C 122.546875 104.59375 123.683594 105.011719 124.480469 105.730469 C 125.3125 106.414062 125.882812 107.363281 126.414062 108.308594 C 133.0625 120.777344 131.871094 135.535156 127.964844 149.171875 C 127.699219 150.15625 127.246094 151.789062 128.230469 152.089844 C 129.101562 152.355469 130.164062 152.355469 130.84375 152.316406 C 133.949219 152.242188 146.753906 152.355469 149.859375 152.242188 C 149.972656 155.386719 154.519531 158.535156 154.632812 161.71875 Z M 154.632812 161.71875 " fill-opacity="1" fill-rule="nonzero"/><path fill="#dfe5ff" d="M 71.410156 152.316406 L 68.988281 152.316406 C 60.464844 152.316406 52.507812 152.847656 44.023438 152.886719 C 43.265625 152.886719 42.207031 152.546875 41.296875 152.621094 C 41.335938 152.660156 42.359375 152.886719 41.222656 152.886719 C 39.175781 150.535156 36.828125 147.921875 35.578125 145.191406 C 31.148438 135.917969 30.78125 129.910156 30.652344 121.007812 C 30.613281 120.363281 30.425781 119.644531 31.105469 119.152344 C 38.910156 124.269531 47.660156 125.140625 56.675781 124.914062 C 59.0625 124.875 61.410156 124.535156 63.757812 124.191406 C 64.707031 124.039062 65.917969 123.625 65.691406 125.480469 C 64.859375 132.191406 65.613281 138.746094 68.117188 145.078125 C 69.0625 147.464844 70.238281 149.742188 71.410156 152.316406 Z M 71.410156 152.316406 " fill-opacity="1" fill-rule="nonzero"/><path fill="#4966f2" d="M 92.433594 106.375 C 84.9375 115.613281 70.996094 120.242188 59.101562 120.96875 C 49.554688 121.578125 40.160156 121.425781 31.976562 115.359375 C 31.902344 115.09375 31.828125 114.867188 31.714844 114.601562 C 31.636719 114.488281 31.5625 114.375 31.523438 114.261719 C 31.105469 111.722656 31.714844 109.296875 32.507812 106.90625 C 33.683594 103.457031 36.484375 101.980469 39.628906 100.878906 C 39.667969 102.433594 39.707031 103.988281 39.707031 105.582031 C 39.667969 107.25 40.273438 108.347656 41.941406 109.03125 C 43.644531 109.710938 45.425781 110.28125 47.242188 110.394531 C 58.683594 111.265625 69.746094 109.941406 79.820312 103.949219 C 81.5625 102.925781 82.625 101.601562 82.015625 99.441406 C 84.0625 98.796875 85.882812 97.277344 88.265625 97.886719 C 89.417969 98.175781 90.789062 100.125 91.496094 101.007812 C 92.886719 102.738281 93.839844 104.640625 92.433594 106.375 Z M 92.433594 106.375 " fill-opacity="1" fill-rule="nonzero"/><path fill="#cbcbc6" d="M 74.714844 163.808594 C 74.726562 164.1875 74.738281 164.566406 74.75 164.941406 C 74.339844 164.578125 74.332031 164.199219 74.714844 163.808594 Z M 74.714844 163.808594 " fill-opacity="1" fill-rule="nonzero"/><path fill="#cbcbc6" d="M 31.507812 114.257812 C 31.578125 114.378906 31.648438 114.5 31.71875 114.621094 C 31.648438 114.5 31.578125 114.378906 31.507812 114.257812 Z M 31.507812 114.257812 " fill-opacity="1" fill-rule="nonzero"/><path fill="#36547a" d="M 71.183594 65 C 68.675781 61.277344 67.039062 57.039062 66.566406 52.566406 C 65.652344 43.878906 73.171875 36.457031 82.945312 40.339844 C 93.1875 44.414062 99.515625 52.207031 101.136719 63.1875 C 103.113281 76.578125 83.890625 83.855469 71.183594 65 Z M 83.164062 69.597656 C 89.023438 69.625 93.929688 64.945312 93.953125 59.296875 C 93.980469 53.382812 89.273438 48.503906 83.472656 48.429688 C 77.5 48.351562 72.761719 53.105469 72.734375 59.199219 C 72.710938 64.855469 77.441406 69.570312 83.164062 69.597656 Z M 83.164062 69.597656 " fill-opacity="1" fill-rule="nonzero"/><path fill="#36547a" d="M 44.523438 71.285156 C 43.707031 71.882812 42.886719 72.484375 42.066406 73.082031 C 39.714844 74.472656 37.308594 75.710938 34.574219 76.199219 C 25.433594 77.824219 18.460938 71.226562 20.160156 62.101562 C 22.097656 51.683594 28.320312 44.363281 38.039062 40.359375 C 45.285156 37.371094 52.367188 40.824219 54.183594 47.746094 C 55.171875 51.523438 54.386719 55.175781 53.058594 58.746094 C 51.242188 63.628906 48.203125 67.675781 44.523438 71.285156 Z M 37.671875 69.582031 C 43.371094 69.574219 48.292969 64.648438 48.230469 59.011719 C 48.167969 53.136719 43.371094 48.414062 37.464844 48.414062 C 31.695312 48.417969 27.007812 53.164062 26.988281 59.019531 C 26.972656 64.976562 31.636719 69.589844 37.671875 69.582031 Z M 37.671875 69.582031 " fill-opacity="1" fill-rule="nonzero"/><path fill="#173969" d="M 71.941406 86.515625 C 69.859375 89.847656 64.972656 90.949219 61.714844 88.636719 C 60.730469 87.878906 60.160156 87.953125 59.136719 88.636719 C 55.804688 90.875 51.410156 90.039062 49.214844 86.816406 C 48.757812 86.171875 48.113281 85.414062 48.988281 84.695312 C 49.933594 83.898438 50.425781 84.808594 50.957031 85.414062 C 52.8125 87.652344 54.78125 88.257812 57.015625 87.347656 C 59.136719 86.515625 60.238281 83.671875 59.289062 81.699219 C 59.023438 81.09375 58.417969 81.167969 57.925781 80.941406 C 55.578125 79.957031 53.457031 78.589844 52.054688 76.394531 C 50.5 73.929688 51.03125 72.1875 53.757812 71.085938 C 54.628906 70.746094 55.578125 70.554688 56.488281 70.289062 C 57.8125 69.910156 59.175781 70.0625 60.085938 69.988281 C 62.925781 69.949219 65.3125 70.101562 67.507812 71.160156 C 69.667969 72.148438 70.121094 73.550781 69.0625 75.636719 C 67.8125 78.023438 65.804688 79.578125 63.417969 80.753906 C 62.621094 81.132812 61.488281 81.054688 61.5625 82.496094 C 61.675781 84.164062 61.222656 85.90625 63.078125 87.042969 C 65.199219 88.296875 67.925781 87.800781 69.667969 85.757812 C 70.046875 85.339844 70.351562 84.882812 70.765625 84.582031 C 71.222656 84.277344 71.714844 84.46875 72.054688 84.847656 C 72.625 85.414062 72.28125 85.945312 71.941406 86.515625 Z M 71.941406 86.515625 " fill-opacity="1" fill-rule="nonzero"/><path fill="#cbcbc6" d="M 100.261719 150.28125 C 100.574219 150.542969 100.574219 150.796875 100.253906 151.050781 C 100.257812 150.796875 100.257812 150.539062 100.261719 150.28125 Z M 100.261719 150.28125 " fill-opacity="1" fill-rule="nonzero"/><path fill="#e04141" d="M 57.191406 140.0625 C 57.160156 143.960938 55.300781 146.933594 52.214844 147.980469 C 46.6875 149.882812 40.203125 143.703125 40.492188 136.972656 C 40.613281 133.703125 41.71875 130.882812 44.929688 129.503906 C 50.988281 126.902344 57.320312 133.242188 57.191406 140.0625 Z M 57.191406 140.0625 " fill-opacity="1" fill-rule="nonzero"/><path fill="#fd6c6b" d="M 55.390625 138.261719 C 55.390625 145.800781 48.578125 148.78125 43.160156 144.621094 L 43.070312 144.53125 C 41.390625 142.28125 40.371094 139.792969 40.492188 136.972656 C 40.613281 133.703125 41.71875 130.882812 44.929688 129.503906 C 47.445312 128.421875 50.355469 128.902344 52.632812 130.613281 C 52.664062 130.640625 52.691406 130.640625 52.722656 130.671875 C 54.433594 132.863281 55.449219 135.382812 55.390625 138.261719 Z M 55.390625 138.261719 " fill-opacity="1" fill-rule="nonzero"/><path fill="#f0eee3" d="M 89.429688 56.390625 C 87.246094 58.289062 85.902344 58.597656 84.496094 57.445312 C 82.785156 56.050781 83.035156 54.425781 84.046875 52.710938 C 84.914062 51.242188 83.496094 51.695312 82.996094 51.652344 C 79.691406 51.363281 76.425781 53.496094 75.320312 56.582031 C 74.195312 59.730469 75.269531 63.339844 77.929688 65.371094 C 83.914062 69.9375 92.359375 64.082031 89.429688 56.390625 Z M 89.429688 56.390625 " fill-opacity="1" fill-rule="nonzero"/><path fill="#f0eee3" d="M 45.265625 56.535156 C 43.714844 58.011719 42.109375 58.921875 40.316406 57.375 C 38.664062 55.949219 38.84375 54.3125 40.109375 52.675781 C 40.855469 51.714844 40 51.722656 39.417969 51.617188 C 36.164062 51.019531 32.800781 52.894531 31.285156 56.140625 C 29.871094 59.179688 30.773438 63.019531 33.421875 65.214844 C 39.285156 70.074219 48.050781 64.242188 45.265625 56.535156 Z M 45.265625 56.535156 " fill-opacity="1" fill-rule="nonzero"/><path fill="#f0eee3" d="M 48.226562 58.996094 C 48.304688 64.640625 43.378906 69.570312 37.660156 69.570312 C 31.636719 69.609375 26.976562 64.984375 26.976562 59.03125 C 27.015625 53.15625 31.714844 48.417969 37.472656 48.417969 C 43.378906 48.417969 48.152344 53.117188 48.226562 58.996094 Z M 48.226562 58.996094 " fill-opacity="1" fill-rule="nonzero"/><path fill="#f0eee3" d="M 93.949219 59.296875 C 93.910156 64.945312 89.023438 69.609375 83.152344 69.609375 C 77.433594 69.570312 72.699219 64.871094 72.738281 59.183594 C 72.773438 53.117188 77.507812 48.34375 83.457031 48.417969 C 89.289062 48.496094 93.988281 53.382812 93.949219 59.296875 Z M 93.949219 59.296875 " fill-opacity="1" fill-rule="nonzero"/><path fill="#ffffff" d="M 61.820312 72.855469 C 60.671875 72.832031 59.523438 72.808594 58.375 72.785156 C 57.355469 72.761719 56.328125 72.949219 55.292969 72.9375 C 54.855469 72.929688 54.21875 73.117188 54.117188 72.472656 C 54.03125 71.910156 54.589844 71.667969 55.03125 71.550781 C 58.617188 70.601562 62.222656 70.421875 65.8125 71.5 C 66.285156 71.640625 66.984375 71.835938 66.804688 72.550781 C 66.648438 73.15625 66.015625 72.914062 65.574219 72.941406 C 64.339844 73.011719 63.0625 72.882812 61.820312 72.855469 Z M 61.820312 72.855469 " fill-opacity="0.4" fill-rule="nonzero"/><path fill="#02c66f" d="M 89.429688 56.390625 C 92.363281 64.082031 83.914062 69.933594 77.929688 65.371094 C 75.269531 63.339844 74.195312 59.730469 75.320312 56.582031 C 76.425781 53.496094 79.691406 51.363281 82.996094 51.652344 C 83.496094 51.695312 84.914062 51.242188 84.046875 52.710938 C 83.035156 54.425781 82.785156 56.050781 84.496094 57.445312 C 85.902344 58.597656 87.246094 58.289062 89.429688 56.390625 Z M 89.429688 56.390625 " fill-opacity="1" fill-rule="nonzero"/><path fill="#02c66f" d="M 45.265625 56.535156 C 48.050781 64.246094 39.285156 70.074219 33.421875 65.214844 C 30.773438 63.019531 29.871094 59.179688 31.285156 56.140625 C 32.800781 52.894531 36.164062 51.019531 39.417969 51.617188 C 40 51.722656 40.855469 51.714844 40.109375 52.675781 C 38.84375 54.3125 38.664062 55.949219 40.316406 57.375 C 42.109375 58.921875 43.714844 58.011719 45.265625 56.535156 Z M 45.265625 56.535156 " fill-opacity="1" fill-rule="nonzero"/><path fill="#4966f2" d="M 165.542969 154.820312 C 160.125 187.589844 161.15625 187.574219 159.015625 190.316406 C 158.597656 190.851562 156.304688 193.136719 156.449219 191.246094 C 156.640625 185.828125 154.328125 186.851562 149.214844 184.84375 C 148.230469 184.617188 147.246094 179.570312 146.261719 179.382812 C 144.59375 179.003906 142.320312 187.8125 141.449219 186.675781 C 140.578125 185.539062 140.996094 175.328125 140.84375 173.660156 C 140.832031 173.359375 140.078125 158.378906 140.050781 158.078125 C 139.527344 154.429688 139.78125 148.695312 141.714844 144.925781 C 145.007812 138.4375 151.722656 135.808594 157.960938 137.460938 C 158.679688 137.652344 159.398438 137.742188 160.074219 138.089844 C 162.144531 139.15625 163.824219 141.484375 164.671875 143.523438 C 166.148438 147.085938 166.1875 151.066406 165.542969 154.820312 Z M 165.542969 154.820312 " fill-opacity="1" fill-rule="nonzero"/><path fill="#1f39de" d="M 140.03125 158.097656 C 139.558594 154.078125 139.8125 148.652344 141.726562 144.910156 C 144.605469 139.277344 150.03125 136.570312 155.136719 136.996094 C 155.429688 137.019531 156.238281 136.992188 156.449219 137.207031 C 156.789062 137.558594 155.957031 137.6875 155.585938 137.859375 C 155.175781 138.042969 154.765625 138.230469 154.351562 138.40625 C 151.453125 139.667969 150.15625 142.726562 149.542969 145.839844 C 148.449219 151.40625 149.78125 171.378906 149.511719 182.917969 C 148.519531 182.695312 147.238281 184.351562 146.246094 184.128906 C 144.609375 183.765625 142.332031 187.300781 141.441406 186.152344 C 140.570312 185.027344 140.996094 175.328125 140.855469 173.640625 C 139.933594 156.691406 140.128906 158.921875 140.03125 158.097656 Z M 140.03125 158.097656 " fill-opacity="1" fill-rule="nonzero"/><path fill="#1f39de" d="M 158.226562 145.351562 C 158.546875 145.371094 158.859375 145.4375 159.164062 145.550781 C 159.472656 145.664062 159.765625 145.816406 160.050781 146.019531 C 160.332031 146.21875 160.597656 146.457031 160.847656 146.734375 C 161.09375 147.015625 161.320312 147.328125 161.523438 147.675781 C 161.730469 148.023438 161.90625 148.398438 162.058594 148.804688 C 162.210938 149.207031 162.332031 149.628906 162.425781 150.074219 C 162.519531 150.515625 162.585938 150.972656 162.617188 151.4375 C 162.648438 151.90625 162.648438 152.375 162.617188 152.84375 C 162.589844 153.316406 162.527344 153.78125 162.433594 154.238281 C 162.34375 154.699219 162.222656 155.140625 162.070312 155.566406 C 161.921875 155.996094 161.742188 156.398438 161.542969 156.78125 C 161.339844 157.160156 161.113281 157.511719 160.867188 157.828125 C 160.621094 158.148438 160.355469 158.429688 160.074219 158.671875 C 159.789062 158.917969 159.496094 159.121094 159.191406 159.28125 C 158.882812 159.445312 158.570312 159.558594 158.25 159.632812 C 157.933594 159.703125 157.613281 159.730469 157.292969 159.707031 C 156.976562 159.6875 156.664062 159.621094 156.355469 159.507812 C 156.050781 159.394531 155.753906 159.242188 155.472656 159.039062 C 155.1875 158.839844 154.921875 158.601562 154.675781 158.324219 C 154.425781 158.042969 154.199219 157.730469 153.996094 157.382812 C 153.792969 157.035156 153.613281 156.660156 153.460938 156.253906 C 153.308594 155.851562 153.1875 155.429688 153.09375 154.984375 C 153 154.542969 152.9375 154.085938 152.90625 153.621094 C 152.871094 153.152344 152.871094 152.683594 152.902344 152.214844 C 152.933594 151.742188 152.992188 151.277344 153.085938 150.820312 C 153.179688 150.359375 153.300781 149.917969 153.449219 149.492188 C 153.601562 149.0625 153.777344 148.660156 153.980469 148.277344 C 154.183594 147.898438 154.40625 147.546875 154.65625 147.230469 C 154.902344 146.910156 155.167969 146.628906 155.449219 146.386719 C 155.730469 146.140625 156.023438 145.9375 156.332031 145.777344 C 156.636719 145.613281 156.949219 145.5 157.269531 145.425781 C 157.589844 145.355469 157.90625 145.328125 158.226562 145.351562 Z M 158.226562 145.351562 " fill-opacity="1" fill-rule="nonzero"/><path fill="#1f39de" d="M 158.949219 188.820312 C 158.949219 189.554688 158.84375 190.816406 158.359375 191.414062 C 157.972656 191.898438 157.136719 191.96875 156.566406 191.96875 C 152.167969 191.96875 141.683594 191.96875 137.792969 191.96875 C 136.585938 191.96875 135.371094 192.066406 134.929688 190.703125 C 134.734375 190.097656 134.632812 189.460938 134.632812 188.820312 C 134.632812 184.121094 140.050781 180.292969 146.792969 180.292969 C 153.496094 180.292969 158.949219 184.121094 158.949219 188.820312 Z M 158.949219 188.820312 " fill-opacity="1" fill-rule="nonzero"/><path fill="#4966f2" d="M 144.441406 185.789062 C 143.34375 187.761719 143.535156 189.882812 143.535156 191.96875 C 142.695312 191.96875 141.859375 191.96875 141.023438 191.96875 C 140.652344 191.96875 140.1875 192.113281 139.941406 191.789062 C 139.667969 191.421875 139.863281 190.644531 139.984375 190.257812 C 140.390625 188.964844 140.722656 187.277344 141.753906 186.320312 C 142.285156 185.828125 142.777344 185.21875 143.496094 184.992188 C 143.800781 184.878906 144.175781 184.765625 144.441406 184.917969 C 144.820312 185.105469 144.59375 185.484375 144.441406 185.789062 Z M 144.441406 185.789062 " fill-opacity="1" fill-rule="nonzero"/><path fill="#4966f2" d="M 151.035156 187.078125 C 150.464844 188.667969 150.503906 190.335938 150.464844 191.96875 L 147.511719 191.96875 C 147.359375 189.84375 147.8125 187.835938 149.328125 186.128906 C 149.785156 185.636719 150.429688 185.03125 151.070312 185.410156 C 151.675781 185.75 151.222656 186.507812 151.035156 187.078125 Z M 151.035156 187.078125 " fill-opacity="1" fill-rule="nonzero"/><path fill="#4966f2" d="M 98.601562 154.820312 C 93.183594 187.589844 94.214844 187.574219 92.074219 190.316406 C 91.65625 190.851562 89.363281 193.136719 89.511719 191.246094 C 89.699219 185.828125 87.390625 186.851562 82.273438 184.84375 C 81.289062 184.617188 80.304688 179.570312 79.320312 179.382812 C 77.652344 179.003906 75.382812 187.8125 74.507812 186.675781 C 73.636719 185.539062 74.054688 175.328125 73.902344 173.660156 C 73.890625 173.359375 73.136719 158.378906 73.109375 158.078125 C 72.585938 154.429688 72.839844 148.695312 74.773438 144.925781 C 78.066406 138.4375 84.78125 135.808594 91.019531 137.460938 C 91.738281 137.652344 92.457031 137.742188 93.136719 138.089844 C 96.691406 139.921875 100.171875 145.671875 98.601562 154.820312 Z M 98.601562 154.820312 " fill-opacity="1" fill-rule="nonzero"/><path fill="#1f39de" d="M 73.089844 158.097656 C 72.617188 154.078125 72.871094 148.652344 74.785156 144.910156 C 77.679688 139.242188 83.128906 136.574219 88.195312 136.996094 C 88.488281 137.019531 89.296875 136.992188 89.507812 137.207031 C 89.847656 137.558594 89.015625 137.6875 88.644531 137.859375 C 87.125 138.550781 86.046875 138.847656 84.710938 140.59375 C 83.53125 142.113281 82.96875 143.972656 82.601562 145.839844 C 81.507812 151.40625 82.839844 171.378906 82.570312 182.917969 C 81.578125 182.695312 80.296875 184.351562 79.304688 184.128906 C 77.671875 183.765625 75.390625 187.300781 74.5 186.152344 C 73.628906 185.027344 74.054688 175.328125 73.914062 173.640625 C 72.992188 156.691406 73.1875 158.921875 73.089844 158.097656 Z M 73.089844 158.097656 " fill-opacity="1" fill-rule="nonzero"/><path fill="#1f39de" d="M 91.285156 145.351562 C 91.605469 145.371094 91.917969 145.4375 92.222656 145.550781 C 92.53125 145.664062 92.828125 145.820312 93.109375 146.019531 C 93.390625 146.21875 93.65625 146.457031 93.90625 146.734375 C 94.15625 147.015625 94.378906 147.328125 94.585938 147.675781 C 94.789062 148.023438 94.964844 148.398438 95.117188 148.804688 C 95.269531 149.207031 95.394531 149.628906 95.488281 150.074219 C 95.582031 150.515625 95.644531 150.972656 95.675781 151.4375 C 95.707031 151.90625 95.707031 152.375 95.679688 152.84375 C 95.648438 153.316406 95.585938 153.78125 95.492188 154.238281 C 95.402344 154.699219 95.28125 155.140625 95.128906 155.570312 C 94.980469 155.996094 94.804688 156.398438 94.601562 156.78125 C 94.398438 157.160156 94.171875 157.511719 93.925781 157.828125 C 93.679688 158.148438 93.414062 158.429688 93.132812 158.675781 C 92.847656 158.917969 92.554688 159.121094 92.25 159.28125 C 91.941406 159.445312 91.628906 159.5625 91.3125 159.632812 C 90.992188 159.703125 90.671875 159.730469 90.355469 159.707031 C 90.035156 159.6875 89.722656 159.621094 89.414062 159.507812 C 89.109375 159.398438 88.8125 159.242188 88.53125 159.042969 C 88.246094 158.84375 87.980469 158.601562 87.734375 158.324219 C 87.484375 158.042969 87.257812 157.730469 87.054688 157.382812 C 86.851562 157.035156 86.671875 156.660156 86.519531 156.253906 C 86.371094 155.851562 86.246094 155.429688 86.152344 154.984375 C 86.058594 154.542969 85.996094 154.085938 85.964844 153.621094 C 85.933594 153.15625 85.929688 152.683594 85.960938 152.214844 C 85.992188 151.742188 86.054688 151.277344 86.144531 150.820312 C 86.238281 150.359375 86.359375 149.917969 86.507812 149.492188 C 86.660156 149.0625 86.835938 148.660156 87.039062 148.277344 C 87.242188 147.898438 87.464844 147.550781 87.714844 147.230469 C 87.960938 146.910156 88.226562 146.628906 88.507812 146.386719 C 88.789062 146.140625 89.085938 145.9375 89.390625 145.777344 C 89.699219 145.617188 90.011719 145.5 90.328125 145.425781 C 90.648438 145.355469 90.964844 145.332031 91.285156 145.351562 Z M 91.285156 145.351562 " fill-opacity="1" fill-rule="nonzero"/><path fill="#1f39de" d="M 92.011719 188.820312 C 92.011719 189.554688 91.902344 190.816406 91.417969 191.414062 C 91.03125 191.898438 90.199219 191.96875 89.625 191.96875 C 85.035156 191.96875 74.566406 191.96875 70.851562 191.96875 C 69.648438 191.96875 68.429688 192.066406 67.988281 190.703125 C 67.792969 190.097656 67.691406 189.460938 67.691406 188.820312 C 67.691406 184.121094 73.109375 180.292969 79.851562 180.292969 C 86.554688 180.292969 92.011719 184.121094 92.011719 188.820312 Z M 92.011719 188.820312 " fill-opacity="1" fill-rule="nonzero"/><path fill="#4966f2" d="M 77.503906 185.789062 C 76.402344 187.761719 76.59375 189.882812 76.59375 191.96875 C 75.757812 191.96875 74.917969 191.96875 74.082031 191.96875 C 73.710938 191.96875 73.246094 192.113281 73 191.789062 C 72.726562 191.421875 72.921875 190.644531 73.042969 190.257812 C 73.449219 188.964844 73.78125 187.277344 74.8125 186.320312 C 75.34375 185.828125 75.835938 185.21875 76.554688 184.992188 C 76.859375 184.878906 77.238281 184.765625 77.503906 184.917969 C 77.882812 185.105469 77.652344 185.484375 77.503906 185.789062 Z M 77.503906 185.789062 " fill-opacity="1" fill-rule="nonzero"/><path fill="#4966f2" d="M 84.09375 187.078125 C 83.523438 188.667969 83.5625 190.335938 83.523438 191.96875 L 80.570312 191.96875 C 80.417969 189.84375 80.875 187.835938 82.390625 186.128906 C 82.84375 185.636719 83.488281 185.03125 84.132812 185.410156 C 84.738281 185.75 84.28125 186.507812 84.09375 187.078125 Z M 84.09375 187.078125 " fill-opacity="1" fill-rule="nonzero"/><path fill="#ffffff" d="M 118.1875 116.140625 L 98.800781 116.140625 C 97.144531 116.140625 95.804688 114.796875 95.804688 113.140625 C 95.804688 111.484375 97.144531 110.140625 98.800781 110.140625 L 118.1875 110.140625 C 119.84375 110.140625 121.183594 111.484375 121.183594 113.140625 C 121.183594 114.796875 119.84375 116.140625 118.1875 116.140625 Z M 118.1875 116.140625 " fill-opacity="0.6" fill-rule="nonzero"/><path fill="#ffffff" d="M 39.539062 32.230469 C 39.234375 31.460938 39.609375 30.589844 40.378906 30.285156 C 47.199219 27.578125 54.375 25.960938 61.699219 25.484375 C 62.457031 25.46875 63.238281 26.054688 63.292969 26.882812 C 63.34375 27.710938 62.71875 28.421875 61.894531 28.476562 C 54.882812 28.933594 48.011719 30.480469 41.484375 33.074219 C 40.71875 33.375 39.847656 33.007812 39.539062 32.230469 Z M 39.539062 32.230469 " fill-opacity="0.7" fill-rule="nonzero"/><path fill="#ffffff" d="M 90.445312 178.636719 C 89.625 178.53125 89.042969 177.777344 89.148438 176.957031 L 90.746094 164.417969 C 90.851562 163.59375 91.609375 163.03125 92.421875 163.121094 C 93.242188 163.226562 93.824219 163.976562 93.71875 164.796875 L 92.121094 177.335938 C 92.019531 178.125 91.316406 178.734375 90.445312 178.636719 Z M 90.445312 178.636719 " fill-opacity="0.45" fill-rule="nonzero"/><g transform="matrix(1, 0, 0, 1, 190, 182)"><g clip-path="url(#eec59f137e)"><g clip-path="url(#f7a5361ae5)"><g fill="#000000" fill-opacity="1"><g transform="translate(0.793618, 1.999986)"><g><path d="M 0.078125 -0.046875 C 0.078125 -0.078125 0.0820312 -0.0976562 0.09375 -0.109375 C 0.101562 -0.117188 0.117188 -0.125 0.140625 -0.125 C 0.148438 -0.125 0.160156 -0.117188 0.171875 -0.109375 C 0.191406 -0.0976562 0.203125 -0.078125 0.203125 -0.046875 C 0.203125 -0.0234375 0.191406 -0.0078125 0.171875 0 C 0.160156 0.0078125 0.148438 0.015625 0.140625 0.015625 C 0.117188 0.015625 0.101562 0.0078125 0.09375 0 C 0.0820312 -0.0078125 0.078125 -0.0234375 0.078125 -0.046875 Z M 0.078125 -0.046875 "/></g></g></g></g></g></g></svg>