<svg xmlns="http://www.w3.org/2000/svg" xmlns:xlink="http://www.w3.org/1999/xlink" width="256" zoomAndPan="magnify" viewBox="0 0 192 191.999996" height="256" preserveAspectRatio="xMidYMid meet" version="1.0"><path fill="#000000" d="M 185.007812 111.015625 C 188.773438 111.015625 191.855469 107.933594 191.855469 104.167969 L 191.855469 87.605469 C 191.855469 83.839844 188.773438 80.757812 185.007812 80.757812 L 177.894531 80.757812 C 174.128906 80.757812 170.144531 77.808594 169.03125 74.207031 L 162.964844 59.476562 C 161.183594 56.15625 161.90625 51.261719 164.566406 48.601562 L 169.601562 43.566406 C 172.261719 40.902344 172.265625 36.542969 169.601562 33.878906 L 157.890625 22.171875 C 155.226562 19.507812 150.871094 19.507812 148.207031 22.171875 L 143.171875 27.203125 C 140.507812 29.867188 135.609375 30.585938 132.292969 28.804688 L 117.5625 22.738281 C 113.960938 21.632812 111.015625 17.644531 111.015625 13.875 L 111.015625 6.765625 C 111.015625 2.996094 107.933594 -0.0859375 104.167969 -0.0859375 L 87.605469 -0.0859375 C 83.839844 -0.0859375 80.757812 2.996094 80.757812 6.765625 L 80.757812 13.875 C 80.757812 17.644531 77.808594 21.632812 74.210938 22.738281 L 59.480469 28.804688 C 56.160156 30.585938 51.265625 29.867188 48.601562 27.203125 L 43.570312 22.167969 C 40.90625 19.503906 36.546875 19.503906 33.882812 22.167969 L 22.171875 33.878906 C 19.507812 36.542969 19.507812 40.898438 22.171875 43.5625 L 27.207031 48.597656 C 29.875 51.261719 30.59375 56.15625 28.8125 59.476562 L 22.742188 74.207031 C 21.636719 77.808594 17.648438 80.753906 13.878906 80.753906 L 6.769531 80.753906 C 3.003906 80.753906 -0.078125 83.835938 -0.078125 87.601562 L -0.078125 104.167969 C -0.078125 107.933594 3.003906 111.015625 6.769531 111.015625 L 13.878906 111.015625 C 17.648438 111.015625 21.636719 113.960938 22.742188 117.5625 L 28.8125 132.296875 C 30.597656 135.613281 29.875 140.507812 27.210938 143.171875 L 22.175781 148.207031 C 19.511719 150.871094 19.511719 155.226562 22.175781 157.890625 L 33.882812 169.601562 C 36.546875 172.265625 40.90625 172.261719 43.570312 169.601562 L 48.605469 164.566406 C 51.269531 161.902344 56.164062 161.183594 59.480469 162.964844 L 74.214844 169.03125 C 77.8125 170.140625 80.757812 174.125 80.757812 177.894531 L 80.757812 185.007812 C 80.757812 188.773438 83.839844 191.855469 87.609375 191.855469 L 104.167969 191.855469 C 107.9375 191.855469 111.019531 188.773438 111.019531 185.007812 L 111.019531 177.894531 C 111.019531 174.125 113.960938 170.140625 117.5625 169.03125 L 132.296875 162.964844 C 135.613281 161.183594 140.507812 161.902344 143.171875 164.566406 L 148.210938 169.601562 C 150.871094 172.265625 155.230469 172.261719 157.894531 169.601562 L 169.605469 157.890625 C 172.265625 155.230469 172.269531 150.871094 169.605469 148.207031 L 164.570312 143.171875 C 161.90625 140.507812 161.1875 135.609375 162.96875 132.292969 L 169.03125 117.5625 C 170.140625 113.960938 174.128906 111.015625 177.898438 111.015625 Z M 95.886719 135.367188 C 74.082031 135.367188 56.402344 117.691406 56.402344 95.886719 C 56.402344 74.078125 74.082031 56.402344 95.886719 56.402344 C 117.691406 56.402344 135.371094 74.078125 135.371094 95.886719 C 135.371094 117.691406 117.691406 135.367188 95.886719 135.367188 Z M 95.886719 135.367188 " fill-opacity="1" fill-rule="nonzero"/></svg>